<svg width="48" height="450" viewBox="0 0 48 450" fill="none" xmlns="http://www.w3.org/2000/svg">
<path fill-rule="evenodd" clip-rule="evenodd" d="M41.46 14.24L41.18 13.74C40.8188 13.1354 40.3094 12.6329 39.7 12.28L26.28 4.54C25.6724 4.1875 24.9826 4.00124 24.28 4H23.7C22.9974 4.00124 22.3076 4.1875 21.7 4.54L8.28 12.3C7.67394 12.6505 7.17052 13.1539 6.82 13.76L6.54 14.26C6.1875 14.8677 6.00124 15.5575 6 16.26V31.76C6.00124 32.4626 6.1875 33.1524 6.54 33.76L6.82 34.26C7.17958 34.859 7.68098 35.3604 8.28 35.72L21.72 43.46C22.3246 43.8198 23.0164 44.0066 23.72 44H24.28C24.9826 43.9988 25.6724 43.8126 26.28 43.46L39.7 35.7C40.312 35.3574 40.8174 34.852 41.16 34.24L41.46 33.74C41.8082 33.1306 41.9942 32.442 42 31.74V16.24C41.9988 15.5375 41.8126 14.8477 41.46 14.24ZM23.7 8H24.28L36 14.76L24 21.68L12 14.76L23.7 8ZM26 39L37.7 32.24L38 31.74V18.22L26 25.16V39Z" fill="#4D4D4D"/>
<path d="M14 70L8 64L2 70" stroke="#4D4D4D" stroke-width="2" stroke-linecap="round" stroke-linejoin="round"/>
<line x1="8" y1="64" x2="8" y2="134" stroke="#4D4D4D" stroke-width="2"/>
<line x1="40" y1="64" x2="40" y2="134" stroke="#4D4D4D" stroke-width="2"/>
<path d="M34 128L40 134L46 128" stroke="#4D4D4D" stroke-width="2" stroke-linecap="round" stroke-linejoin="round"/>
<path fill-rule="evenodd" clip-rule="evenodd" d="M41.46 148.24L41.18 147.74C40.8188 147.135 40.3094 146.633 39.7 146.28L26.28 138.54C25.6724 138.187 24.9826 138.001 24.28 138H23.7C22.9974 138.001 22.3076 138.187 21.7 138.54L8.28 146.3C7.67394 146.651 7.17052 147.154 6.82 147.76L6.54 148.26C6.1875 148.868 6.00124 149.557 6 150.26V165.76C6.00124 166.463 6.1875 167.152 6.54 167.76L6.82 168.26C7.17958 168.859 7.68098 169.36 8.28 169.72L21.72 177.46C22.3246 177.82 23.0164 178.007 23.72 178H24.28C24.9826 177.999 25.6724 177.813 26.28 177.46L39.7 169.7C40.312 169.357 40.8174 168.852 41.16 168.24L41.46 167.74C41.8082 167.131 41.9942 166.442 42 165.74V150.24C41.9988 149.537 41.8126 148.848 41.46 148.24ZM23.7 142H24.28L36 148.76L24 155.68L12 148.76L23.7 142ZM26 173L37.7 166.24L38 165.74V152.22L26 159.16V173Z" fill="#4D4D4D"/>
<line x1="8" y1="198" x2="8" y2="268" stroke="#4D4D4D" stroke-width="2"/>
<path d="M14 204L8 198L2 204" stroke="#4D4D4D" stroke-width="2" stroke-linecap="round" stroke-linejoin="round"/>
<line x1="40" y1="198" x2="40" y2="268" stroke="#4D4D4D" stroke-width="2"/>
<path d="M34 262L40 268L46 262" stroke="#4D4D4D" stroke-width="2" stroke-linecap="round" stroke-linejoin="round"/>
<path fill-rule="evenodd" clip-rule="evenodd" d="M41.46 282.24L41.18 281.74C40.8188 281.135 40.3094 280.633 39.7 280.28L26.28 272.54C25.6724 272.187 24.9826 272.001 24.28 272H23.7C22.9974 272.001 22.3076 272.187 21.7 272.54L8.28 280.3C7.67394 280.651 7.17052 281.154 6.82 281.76L6.54 282.26C6.1875 282.868 6.00124 283.557 6 284.26V299.76C6.00124 300.463 6.1875 301.152 6.54 301.76L6.82 302.26C7.17958 302.859 7.68098 303.36 8.28 303.72L21.72 311.46C22.3246 311.82 23.0164 312.007 23.72 312H24.28C24.9826 311.999 25.6724 311.813 26.28 311.46L39.7 303.7C40.312 303.357 40.8174 302.852 41.16 302.24L41.46 301.74C41.8082 301.131 41.9942 300.442 42 299.74V284.24C41.9988 283.537 41.8126 282.848 41.46 282.24ZM23.7 276H24.28L36 282.76L24 289.68L12 282.76L23.7 276ZM26 307L37.7 300.24L38 299.74V286.22L26 293.16V307Z" fill="#4D4D4D"/>
<line x1="8" y1="332" x2="8" y2="402" stroke="#4D4D4D" stroke-width="2"/>
<path d="M14 338L8 332L2 338" stroke="#4D4D4D" stroke-width="2" stroke-linecap="round" stroke-linejoin="round"/>
<line x1="40" y1="332" x2="40" y2="402" stroke="#4D4D4D" stroke-width="2"/>
<path d="M34 396L40 402L46 396" stroke="#4D4D4D" stroke-width="2" stroke-linecap="round" stroke-linejoin="round"/>
<path fill-rule="evenodd" clip-rule="evenodd" d="M41.46 416.24L41.18 415.74C40.8188 415.135 40.3094 414.633 39.7 414.28L26.28 406.54C25.6724 406.187 24.9826 406.001 24.28 406H23.7C22.9974 406.001 22.3076 406.187 21.7 406.54L8.28 414.3C7.67394 414.651 7.17052 415.154 6.82 415.76L6.54 416.26C6.1875 416.868 6.00124 417.557 6 418.26V433.76C6.00124 434.463 6.1875 435.152 6.54 435.76L6.82 436.26C7.17958 436.859 7.68098 437.36 8.28 437.72L21.72 445.46C22.3246 445.82 23.0164 446.007 23.72 446H24.28C24.9826 445.999 25.6724 445.813 26.28 445.46L39.7 437.7C40.312 437.357 40.8174 436.852 41.16 436.24L41.46 435.74C41.8082 435.131 41.9942 434.442 42 433.74V418.24C41.9988 417.537 41.8126 416.848 41.46 416.24ZM23.7 410H24.28L36 416.76L24 423.68L12 416.76L23.7 410ZM26 441L37.7 434.24L38 433.74V420.22L26 427.16V441Z" fill="#4D4D4D"/>
</svg>
